<svg xmlns="http://www.w3.org/2000/svg" viewBox="0 0 512 512" width="512" height="512" role="img" aria-label="Msaidizi app icon — full composite">
  <defs>
    <linearGradient id="bgGrad" x1="0%" y1="0%" x2="100%" y2="100%">
      <stop offset="0%" stop-color="#1B4965"/>
      <stop offset="100%" stop-color="#0F2D42"/>
    </linearGradient>
    <radialGradient id="glow" cx="50%" cy="42%" r="40%">
      <stop offset="0%" stop-color="#E8A838" stop-opacity="0.06"/>
      <stop offset="100%" stop-color="#E8A838" stop-opacity="0"/>
    </radialGradient>
    <radialGradient id="irisGlow" cx="50%" cy="50%" r="50%">
      <stop offset="0%" stop-color="#F5C842"/>
      <stop offset="100%" stop-color="#E8A838"/>
    </radialGradient>
    <linearGradient id="arcShine" x1="0%" y1="0%" x2="100%" y2="100%">
      <stop offset="0%" stop-color="#F5D060"/>
      <stop offset="50%" stop-color="#E8A838"/>
      <stop offset="100%" stop-color="#D09030"/>
    </linearGradient>
    <clipPath id="roundClip">
      <circle cx="256" cy="256" r="256"/>
    </clipPath>
  </defs>

  <g clip-path="url(#roundClip)">
    <!-- Navy blue background -->
    <rect width="512" height="512" fill="url(#bgGrad)"/>
    <rect width="512" height="512" fill="url(#glow)"/>

    <!-- Subtle radial lines (vision/clarity motif) -->
    <g transform="translate(256, 240)" opacity="0.04">
      <line x1="0" y1="0" x2="0" y2="-260" stroke="#E8A838" stroke-width="1"/>
      <line x1="0" y1="0" x2="184" y2="-184" stroke="#E8A838" stroke-width="1"/>
      <line x1="0" y1="0" x2="260" y2="0" stroke="#E8A838" stroke-width="1"/>
      <line x1="0" y1="0" x2="184" y2="184" stroke="#E8A838" stroke-width="1"/>
      <line x1="0" y1="0" x2="0" y2="260" stroke="#E8A838" stroke-width="1"/>
      <line x1="0" y1="0" x2="-184" y2="184" stroke="#E8A838" stroke-width="1"/>
      <line x1="0" y1="0" x2="-260" y2="0" stroke="#E8A838" stroke-width="1"/>
      <line x1="0" y1="0" x2="-184" y2="-184" stroke="#E8A838" stroke-width="1"/>
    </g>

    <!-- Africa continent silhouette -->
    <g transform="translate(256, 240) scale(2.6)" opacity="0.15">
      <path d="M-8,-90 C2,-95 12,-93 20,-88 C28,-82 32,-72 34,-62
               C36,-50 38,-40 42,-30 C46,-18 52,-8 56,2
               C59,10 58,18 54,26 C50,34 46,40 44,48
               C42,56 38,64 32,72 C26,78 18,82 10,84
               C4,85 -2,84 -8,80 C-14,74 -18,66 -22,56
               C-26,46 -30,36 -34,24 C-38,14 -42,4 -44,-6
               C-46,-16 -46,-26 -42,-36 C-38,-46 -32,-54 -26,-64
               C-20,-72 -14,-80 -8,-86 Z"
           fill="#E8A838"/>
      <ellipse cx="52" cy="42" rx="4" ry="10" fill="#E8A838" transform="rotate(12,52,42)"/>
    </g>

    <!-- Eye symbol -->
    <g transform="translate(256, 240)">
      <path d="M-160,0 A160,120 0 0 1 160,0" fill="none" stroke="url(#arcShine)" stroke-width="8" stroke-linecap="round"/>
      <path d="M-125,0 A125,94 0 0 1 125,0" fill="none" stroke="#E8A838" stroke-width="7" opacity="0.7" stroke-linecap="round"/>
      <path d="M-92,0 A92,69 0 0 1 92,0" fill="none" stroke="#E8A838" stroke-width="6.5" opacity="0.85" stroke-linecap="round"/>
      <path d="M-160,0 A160,120 0 0 0 160,0" fill="none" stroke="#E8A838" stroke-width="3" opacity="0.12" stroke-linecap="round"/>
      <path d="M-125,0 A125,94 0 0 0 125,0" fill="none" stroke="#E8A838" stroke-width="2.5" opacity="0.15" stroke-linecap="round"/>
      <circle cx="0" cy="0" r="42" fill="none" stroke="#E8A838" stroke-width="7"/>
      <circle cx="0" cy="0" r="20" fill="url(#irisGlow)"/>
      <circle cx="10" cy="-10" r="7" fill="#FFFFFF" opacity="0.55"/>
      <circle cx="-5" cy="6" r="3.5" fill="#FFFFFF" opacity="0.25"/>
    </g>

    <!-- MSAIDIZI text -->
    <text x="256" y="420" text-anchor="middle"
          font-family="'Segoe UI','Helvetica Neue',Arial,sans-serif"
          font-size="38" font-weight="700" fill="#FFFFFF"
          letter-spacing="5" opacity="0.95">MSAIDIZI</text>
  </g>

  <!-- Round border -->
  <circle cx="256" cy="256" r="254" fill="none" stroke="#E8A838" stroke-width="2" opacity="0.12"/>
</svg>
