<svg xmlns="http://www.w3.org/2000/svg" viewBox="0 0 512 512" width="512" height="512">
  <defs>
    <linearGradient id="bgGrad" x1="0%" y1="0%" x2="100%" y2="100%">
      <stop offset="0%" stop-color="#1B4965"/>
      <stop offset="100%" stop-color="#0F2D42"/>
    </linearGradient>
    <radialGradient id="glow" cx="50%" cy="40%" r="40%">
      <stop offset="0%" stop-color="#E8A838" stop-opacity="0.08"/>
      <stop offset="100%" stop-color="#E8A838" stop-opacity="0"/>
    </radialGradient>
    <clipPath id="circle">
      <circle cx="256" cy="256" r="256"/>
    </clipPath>
  </defs>

  <!-- Circular background -->
  <circle cx="256" cy="256" r="256" fill="url(#bgGrad)"/>
  <circle cx="256" cy="256" r="256" fill="url(#glow)"/>

  <g clip-path="url(#circle)">
    <!-- Africa continent silhouette -->
    <g transform="translate(256, 320) scale(1.15)">
      <path d="
        M-8,-140 C-5,-142 5,-142 10,-138 C18,-130 28,-120 35,-108
        C40,-100 48,-90 52,-78 C55,-70 60,-58 62,-48 C64,-38 68,-25 72,-15
        C75,-5 78,5 80,15 C82,25 82,35 78,45 C75,52 70,58 65,65
        C60,72 55,78 48,85 C42,90 38,95 32,100 C26,105 20,112 15,118
        C10,125 5,130 0,135 C-5,130 -10,125 -15,118 C-20,112 -25,105 -30,98
        C-35,90 -40,82 -48,72 C-55,62 -62,50 -68,38 C-72,28 -75,18 -78,5
        C-80,-5 -82,-18 -80,-30 C-78,-42 -72,-55 -68,-65 C-62,-78 -55,-88 -48,-98
        C-42,-106 -35,-115 -25,-125 C-18,-132 -12,-138 -8,-140 Z
      " fill="#2A6F99" opacity="0.5"/>

      <!-- East Africa highlight -->
      <path d="
        M55,-58 C60,-48 65,-35 68,-22 C70,-12 72,0 72,12
        C72,22 70,32 66,42 C62,50 56,58 50,65
        C55,58 62,48 66,38 C70,28 72,15 72,2
        C72,-10 70,-25 66,-38 C62,-48 58,-55 55,-58 Z
      " fill="#E8A838" opacity="0.35"/>

      <ellipse cx="82" cy="38" rx="6" ry="14" fill="#2A6F99" opacity="0.35" transform="rotate(15, 82, 38)"/>
    </g>

    <!-- Eye -->
    <g transform="translate(256, 195)">
      <path d="M-155,0 A155,120 0 0 1 155,0" fill="none" stroke="#E8A838" stroke-width="4.5" opacity="0.22"/>
      <path d="M-125,0 A125,97 0 0 1 125,0" fill="none" stroke="#E8A838" stroke-width="5" opacity="0.38"/>
      <path d="M-96,0 A96,74 0 0 1 96,0" fill="none" stroke="#E8A838" stroke-width="5.5" opacity="0.58"/>
      <path d="M-70,0 A70,54 0 0 1 70,0" fill="none" stroke="#E8A838" stroke-width="6" opacity="0.78"/>
      <path d="M-48,0 A48,37 0 0 1 48,0" fill="none" stroke="#E8A838" stroke-width="6.5" opacity="0.95"/>
      <circle cx="0" cy="0" r="28" fill="none" stroke="#E8A838" stroke-width="5.5"/>
      <circle cx="0" cy="0" r="13" fill="#E8A838"/>
      <circle cx="7" cy="-7" r="4.5" fill="#FFFFFF" opacity="0.55"/>
      <circle cx="-3.5" cy="3.5" r="2.2" fill="#FFFFFF" opacity="0.25"/>
      <path d="M-155,0 A155,120 0 0 0 155,0" fill="none" stroke="#E8A838" stroke-width="2.5" opacity="0.07"/>
      <path d="M-125,0 A125,97 0 0 0 125,0" fill="none" stroke="#E8A838" stroke-width="2.5" opacity="0.1"/>
      <path d="M-96,0 A96,74 0 0 0 96,0" fill="none" stroke="#E8A838" stroke-width="2.5" opacity="0.13"/>
    </g>
  </g>
</svg>
