<svg xmlns="http://www.w3.org/2000/svg" viewBox="0 0 512 512" width="512" height="512">
  <defs>
    <linearGradient id="africaGreen" x1="0" y1="0" x2="0" y2="1">
      <stop offset="0%" stop-color="#22C55E"/>
      <stop offset="100%" stop-color="#15803D"/>
    </linearGradient>
  </defs>

  <!-- Dark background circle -->
  <circle cx="256" cy="256" r="256" fill="#0F172A"/>

  <!-- Shield outline — thick gold border -->
  <path d="M256 48 C318 48 382 68 420 112 C452 150 465 200 465 260 C465 332 438 386 398 420 C362 448 314 464 256 466 C198 464 150 448 114 420 C74 386 47 332 47 260 C47 200 60 150 92 112 C130 68 194 48 256 48Z"
    fill="none" stroke="#FBBF24" stroke-width="8" stroke-linejoin="round"/>

  <!-- AFRICA CONTINENT — clean polygon based on key geographic features -->
  <!-- Recognizable: NW corner, West African bulge, Gulf of Guinea, Horn, Cape -->
  <path d="
    M240 78
    L215 82
    L192 90
    L175 102
    L162 118
    L152 138
    L145 158
    L140 178
    L136 198
    L130 215
    L122 230
    L128 248
    L138 260
    L142 275
    L140 292
    L138 310
    L142 328
    L150 345
    L162 360
    L178 375
    L198 388
    L218 398
    L238 406
    L256 410
    L274 406
    L294 398
    L314 388
    L332 375
    L348 360
    L360 345
    L368 328
    L372 310
    L370 292
    L368 275
    L372 260
    L380 248
    L386 230
    L380 215
    L376 198
    L372 178
    L378 158
    L382 138
    L378 118
    L368 102
    L352 90
    L335 82
    L310 78
    L285 75
    L265 75
    L240 78Z
  " fill="url(#africaGreen)"/>

  <!-- Inner detail: West Africa bulge enhancement -->
  <path d="
    M152 138
    L138 155
    L128 175
    L122 198
    L118 218
    L120 238
    L128 252
    L138 260
    L142 275
    L140 292
    L138 310
    L142 328
    L150 345
    L162 360
    L178 375
    L198 388
    L218 398
    L238 406
    L256 410
    L274 406
    L294 398
    L314 388
    L332 375
    L348 360
    L360 345
    L368 328
    L372 310
    L370 292
    L368 275
    L372 260
    L380 248
    L386 230
    L380 215
    L376 198
    L372 178
    L378 158
    L382 138
    L378 118
    L368 102
    L352 90
    L335 82
    L310 78
    L285 75
    L265 75
    L240 78
    L215 82
    L192 90
    L175 102
    L162 118
    L152 138Z
  " fill="url(#africaGreen)" opacity="0.3"/>

  <!-- SPEECH BUBBLE — upper right, bold white -->
  <path d="
    M348 82 C348 68 366 58 388 58 L450 60 C468 61 480 74 480 90 L479 134 C479 150 467 161 449 162 L422 163 L402 188 L407 163 L388 162 C370 161 358 150 358 134 L358 96 C358 90 354 84 348 82Z
  " fill="#FFFFFF"/>

  <circle cx="396" cy="110" r="9" fill="#0F172A"/>
  <circle cx="422" cy="110" r="9" fill="#0F172A"/>
  <circle cx="448" cy="110" r="9" fill="#0F172A"/>

  <!-- CHART LINE — bold gold -->
  <polyline points="75,398 155,315 228,335 298,255 372,188 452,108"
    fill="none" stroke="#FBBF24" stroke-width="10" stroke-linecap="round" stroke-linejoin="round"/>

  <circle cx="75" cy="398" r="12" fill="#F59E0B" stroke="#0F172A" stroke-width="4"/>
  <circle cx="155" cy="315" r="12" fill="#F59E0B" stroke="#0F172A" stroke-width="4"/>
  <circle cx="228" cy="335" r="12" fill="#F59E0B" stroke="#0F172A" stroke-width="4"/>
  <circle cx="298" cy="255" r="12" fill="#F59E0B" stroke="#0F172A" stroke-width="4"/>
  <circle cx="372" cy="188" r="16" fill="#FBBF24" stroke="#FFFFFF" stroke-width="4"/>

  <path d="M362 210 L372 176 L382 210" fill="none" stroke="#FBBF24" stroke-width="6" stroke-linecap="round" stroke-linejoin="round"/>
</svg>
