<svg xmlns="http://www.w3.org/2000/svg" viewBox="0 0 108 108" width="108" height="108">
  <defs>
    <linearGradient id="sg" x1="0" y1="0" x2="0" y2="1">
      <stop offset="0%" stop-color="#22C55E"/>
      <stop offset="100%" stop-color="#16A34A"/>
    </linearGradient>
  </defs>

  <!-- Shield (centered in adaptive icon safe zone) -->
  <path d="M54 16
    C54 16 74 24 78 26
    C80 27 81 29 81 31
    L81 52
    C81 66 74 82 54 90
    C34 82 27 66 27 52
    L27 31
    C27 29 28 27 30 26
    C34 24 54 16 54 16Z"
    fill="url(#sg)"/>

  <!-- Speech bubble -->
  <path d="M42 34
    C42 31 45 28 49 28
    L59 28
    C63 28 66 31 66 34
    L66 44
    C66 47 63 50 59 50
    L55 50
    L51 55
    L52 50
    L49 50
    C45 50 42 47 42 44Z"
    fill="#FFFFFF"
    opacity="0.18"/>

  <!-- Chart line -->
  <path d="M32 70 L42 60 L50 64 L58 54 L66 48 L74 40"
    fill="none"
    stroke="#F59E0B"
    stroke-width="3"
    stroke-linecap="round"
    stroke-linejoin="round"/>

  <circle cx="74" cy="40" r="3" fill="#FBBF24"/>
</svg>
