<svg xmlns="http://www.w3.org/2000/svg" viewBox="0 0 108 108" width="108" height="108">
  <defs>
    <linearGradient id="ag" x1="0" y1="0" x2="0" y2="1">
      <stop offset="0%" stop-color="#22C55E"/>
      <stop offset="100%" stop-color="#15803D"/>
    </linearGradient>
  </defs>

  <!-- Shield outline — gold -->
  <path d="M54 10 C66 10 78 14 86 22 C92 28 96 38 96 50 C96 66 90 78 82 86 C74 94 66 98 54 99 C42 98 34 94 26 86 C18 78 12 66 12 50 C12 38 16 28 22 22 C30 14 42 10 54 10Z"
    fill="none" stroke="#FBBF24" stroke-width="3" stroke-linejoin="round"/>

  <!-- Africa — simplified for adaptive icon -->
  <path d="
    M50 14 L44 16 L38 20 L34 26 L31 34 L29 42 L27 50 L25 58 L24 66 L26 74 L30 80 L36 86 L42 90 L48 93 L54 94 L60 93 L66 90 L72 86 L78 80 L82 74 L84 66 L82 58 L80 50 L82 42 L84 34 L82 26 L78 20 L72 16 L66 14 L60 13 L54 13 L50 14Z
  " fill="url(#ag)"/>

  <!-- Speech bubble -->
  <path d="M72 12 C72 10 76 8 80 8 L92 8 C96 9 98 12 98 16 L98 28 C98 32 96 34 92 34 L88 34 L84 38 L86 34 L80 34 C76 34 74 32 74 28 L74 18 C74 16 72 14 72 12Z"
    fill="#FFFFFF"/>
  <circle cx="80" cy="21" r="2" fill="#0F172A"/>
  <circle cx="86" cy="21" r="2" fill="#0F172A"/>
  <circle cx="92" cy="21" r="2" fill="#0F172A"/>

  <!-- Chart line -->
  <polyline points="14,82 28,64 42,68 54,50 68,36 84,18"
    fill="none" stroke="#FBBF24" stroke-width="3" stroke-linecap="round" stroke-linejoin="round"/>
  <circle cx="14" cy="82" r="3" fill="#F59E0B"/>
  <circle cx="28" cy="64" r="3" fill="#F59E0B"/>
  <circle cx="42" cy="68" r="3" fill="#F59E0B"/>
  <circle cx="54" cy="50" r="3" fill="#F59E0B"/>
  <circle cx="68" cy="36" r="4" fill="#FBBF24" stroke="#FFFFFF" stroke-width="1.5"/>
  <path d="M65 42 L68 32 L71 42" fill="none" stroke="#FBBF24" stroke-width="2" stroke-linecap="round" stroke-linejoin="round"/>
</svg>
