<svg xmlns="http://www.w3.org/2000/svg" viewBox="0 0 192 192" width="192" height="192">
  <defs>
    <linearGradient id="sg" x1="0" y1="0" x2="0" y2="1">
      <stop offset="0%" stop-color="#22C55E"/>
      <stop offset="100%" stop-color="#16A34A"/>
    </linearGradient>
  </defs>

  <!-- Dark background circle -->
  <circle cx="96" cy="96" r="96" fill="#0F172A"/>

  <!-- Simplified shield -->
  <path d="M96 24
    C96 24 144 40 154 45
    C158 47 160 52 160 56
    L160 100
    C160 124 144 152 96 170
    C48 152 32 124 32 100
    L32 56
    C32 52 34 47 38 45
    C48 40 96 24 96 24Z"
    fill="url(#sg)"/>

  <!-- Simplified speech bubble -->
  <path d="M74 58
    C74 53 80 48 88 48
    L104 48
    C112 48 118 53 118 58
    L118 74
    C118 79 112 84 104 84
    L96 84
    L90 92
    L92 84
    L88 84
    C80 84 74 79 74 74Z"
    fill="#FFFFFF"
    opacity="0.18"/>

  <!-- Dots -->
  <circle cx="86" cy="66" r="3" fill="#FFFFFF" opacity="0.3"/>
  <circle cx="96" cy="66" r="3" fill="#FFFFFF" opacity="0.3"/>
  <circle cx="106" cy="66" r="3" fill="#FFFFFF" opacity="0.3"/>

  <!-- Simplified chart line -->
  <path d="M46 130 L68 110 L88 118 L108 96 L128 84 L148 68"
    fill="none"
    stroke="#F59E0B"
    stroke-width="4"
    stroke-linecap="round"
    stroke-linejoin="round"/>

  <!-- Data points -->
  <circle cx="46" cy="130" r="4" fill="#F59E0B"/>
  <circle cx="108" cy="96" r="4" fill="#F59E0B"/>
  <circle cx="148" cy="68" r="5" fill="#FBBF24"/>
</svg>
