<svg xmlns="http://www.w3.org/2000/svg" viewBox="0 0 48 48" width="48" height="48">
  <defs>
    <linearGradient id="sg" x1="0" y1="0" x2="0" y2="1">
      <stop offset="0%" stop-color="#22C55E"/>
      <stop offset="100%" stop-color="#16A34A"/>
    </linearGradient>
  </defs>

  <!-- Dark background circle -->
  <circle cx="24" cy="24" r="24" fill="#0F172A"/>

  <!-- Minimal shield -->
  <path d="M24 6
    C24 6 36 10 39 11.5
    C40 12 40 13.5 40 14.5
    L40 26
    C40 32 36 39 24 43
    C12 39 8 32 8 26
    L8 14.5
    C8 13.5 8 12 9 11.5
    C12 10 24 6 24 6Z"
    fill="url(#sg)"/>

  <!-- Minimal chart line -->
  <path d="M12 33 L18 27 L24 29 L30 23 L36 18"
    fill="none"
    stroke="#F59E0B"
    stroke-width="2.5"
    stroke-linecap="round"
    stroke-linejoin="round"/>

  <!-- Bright endpoint -->
  <circle cx="36" cy="18" r="2.5" fill="#FBBF24"/>
</svg>
