<svg xmlns="http://www.w3.org/2000/svg" viewBox="0 0 192 192" width="192" height="192">
  <defs>
    <linearGradient id="ag" x1="0" y1="0" x2="0" y2="1">
      <stop offset="0%" stop-color="#22C55E"/>
      <stop offset="100%" stop-color="#15803D"/>
    </linearGradient>
  </defs>

  <circle cx="96" cy="96" r="96" fill="#0F172A"/>

  <!-- Shield border -->
  <path d="M96 18 C120 18 144 26 160 42 C174 56 180 76 180 98 C180 126 170 148 154 164 C140 178 120 186 96 187 C72 186 52 178 38 164 C22 148 12 126 12 98 C12 76 18 56 32 42 C48 26 72 18 96 18Z"
    fill="none" stroke="#FBBF24" stroke-width="4" stroke-linejoin="round"/>

  <!-- Africa — simplified polygon -->
  <path d="
    M90 30 L78 34 L68 42 L60 52 L55 64 L52 78 L48 92 L44 106 L42 120 L44 134 L50 146 L58 156 L68 164 L80 172 L90 176 L100 176 L110 172 L120 164 L130 156 L138 146 L144 134 L146 120 L144 106 L148 92 L152 78 L150 64 L144 52 L136 42 L126 34 L114 30 L104 28 L96 28 L90 30Z
  " fill="url(#ag)"/>

  <!-- West Africa bulge -->
  <path d="
    M55 64 L46 74 L40 88 L36 104 L34 118 L38 132 L44 142 L50 146 L58 156 L68 164 L80 172 L90 176 L100 176 L110 172 L120 164 L130 156 L138 146 L144 134 L146 120 L144 106 L148 92 L152 78 L150 64 L144 52 L136 42 L126 34 L114 30 L104 28 L96 28 L90 30 L78 34 L68 42 L60 52 L55 64Z
  " fill="url(#ag)" opacity="0.3"/>

  <!-- Speech bubble -->
  <path d="M130 28 C130 22 138 18 148 18 L172 18 C180 19 184 26 184 34 L184 50 C184 58 178 62 170 62 L160 62 L152 72 L154 62 L148 62 C140 62 134 56 134 48 L134 34 C134 32 132 30 130 28Z"
    fill="#FFFFFF"/>
  <circle cx="150" cy="40" r="4" fill="#0F172A"/>
  <circle cx="160" cy="40" r="4" fill="#0F172A"/>
  <circle cx="170" cy="40" r="4" fill="#0F172A"/>

  <!-- Chart line -->
  <polyline points="28,152 58,118 86,130 112,94 140,68 170,38"
    fill="none" stroke="#FBBF24" stroke-width="5" stroke-linecap="round" stroke-linejoin="round"/>
  <circle cx="28" cy="152" r="5" fill="#F59E0B" stroke="#0F172A" stroke-width="2"/>
  <circle cx="58" cy="118" r="5" fill="#F59E0B" stroke="#0F172A" stroke-width="2"/>
  <circle cx="86" cy="130" r="5" fill="#F59E0B" stroke="#0F172A" stroke-width="2"/>
  <circle cx="112" cy="94" r="5" fill="#F59E0B" stroke="#0F172A" stroke-width="2"/>
  <circle cx="140" cy="68" r="7" fill="#FBBF24" stroke="#FFFFFF" stroke-width="2"/>
  <path d="M136 76 L140 62 L144 76" fill="none" stroke="#FBBF24" stroke-width="3" stroke-linecap="round" stroke-linejoin="round"/>
</svg>
