<svg xmlns="http://www.w3.org/2000/svg" viewBox="0 0 48 48" width="48" height="48">
  <defs>
    <linearGradient id="ag" x1="0" y1="0" x2="0" y2="1">
      <stop offset="0%" stop-color="#22C55E"/>
      <stop offset="100%" stop-color="#15803D"/>
    </linearGradient>
  </defs>

  <!-- Dark background circle -->
  <circle cx="24" cy="24" r="24" fill="#0F172A"/>

  <!-- Shield border — thick gold -->
  <path d="M24 4 C29 4 34 5 38 8 C42 12 44 17 44 24 C44 32 42 37 38 41 C34 44 29 46 24 46 C19 46 14 44 10 41 C6 37 4 32 4 24 C4 17 6 12 10 8 C14 5 19 4 24 4Z"
    fill="none" stroke="#FBBF24" stroke-width="2" stroke-linejoin="round"/>

  <!-- Africa — ultra simplified, just the essential shape -->
  <path d="
    M22 6 L18 8 L14 12 L12 18 L10 24 L8 30 L10 36 L14 40 L20 44 L24 45 L28 44 L34 40 L38 36 L40 30 L38 24 L36 18 L38 12 L36 8 L32 6 L28 5 L24 5 L22 6Z
  " fill="url(#ag)"/>

  <!-- Speech bubble — tiny but visible -->
  <path d="M33 5 C33 4 35 3 37 3 L42 3 C44 3 45 4 45 5 L45 10 C45 11 44 12 42 12 L40 12 L38 14 L39 12 L37 12 C35 12 34 11 34 10 L34 6 C34 5 33 5 33 5Z"
    fill="#FFFFFF"/>
  <circle cx="37" cy="7.5" r="1" fill="#0F172A"/>
  <circle cx="39.5" cy="7.5" r="1" fill="#0F172A"/>
  <circle cx="42" cy="7.5" r="1" fill="#0F172A"/>

  <!-- Chart line — minimal -->
  <polyline points="6,38 12,30 20,32 28,22 36,14 44,6"
    fill="none" stroke="#FBBF24" stroke-width="2" stroke-linecap="round" stroke-linejoin="round"/>
  <circle cx="6" cy="38" r="2" fill="#F59E0B"/>
  <circle cx="12" cy="30" r="2" fill="#F59E0B"/>
  <circle cx="20" cy="32" r="2" fill="#F59E0B"/>
  <circle cx="28" cy="22" r="2" fill="#F59E0B"/>
  <circle cx="36" cy="14" r="2.5" fill="#FBBF24" stroke="#FFFFFF" stroke-width="1"/>
</svg>
